<svg xmlns="http://www.w3.org/2000/svg" enable-background="new 0 0 155.4 34.3" version="1.1" viewBox="0 0 155.4 34.3" x="0px" xml:space="preserve" y="0px" style="fill: rgb(0, 0, 0);" role="img"><g id="__id22_stmin12m2t"><g id="__id23_stmin12m2t" style="fill: rgb(144, 184, 228);"><path d="m79.9 26.3c-0.6-0.3-1.3-0.5-1.9-0.8v0.1c-0.8-1.3-2.5-1.7-3.3-0.8-0.3 0.3-0.7 0.6-1 0.9-0.1 1.4-0.8 1.8-1.9 1.3-0.1 0-0.2-0.3-0.2-0.3 0.2-0.2 0.3-0.3 0.5-0.4 0-0.1-0.1-0.2-0.1-0.3-0.3 0.1-0.7 0.2-1.2 0.3 0 0-0.1-0.2-0.6-0.6-0.3 1-0.5 1.8-0.8 2.7-0.4-0.6-0.7-1.1-0.9-1.6 0.2-0.1 0.5-0.3 0.8-0.5-0.5-1.1-2.1-1.1-2.1-2.5 0.8 0.8 1-0.2 1.6-0.4-0.4-0.2-0.7-0.4-1.1-0.6 0-0.1 0.1-0.1 0.1-0.2 0.2 0.1 0.5 0.2 0.7 0.2 0.1-0.1 0.1-0.2 0.2-0.2-0.2-0.2-0.4-0.6-0.7-0.6s-0.6 0.2-0.8 0.4-0.2 0.6-0.2 0.9c-0.2-0.1-0.6-0.2-0.6-0.2-0.6 0.8-1.3 1.1-2.2 0.7-0.2 0.3-0.5 0.6-0.4 0.9 0 0.4 0.2 0.8 0.5 1.1 0.1 0.1 0.4 0.1 0.5 0 0.5-0.5 1-1 1.4-1.5 0.3 0.5 0.7 0.9 0.9 1.4 0.2 0.6 0 1-0.8 1.2-1.1 0.2-2.1 0.7-3.2 0.1-0.4-0.2-0.9-0.4-1.3-0.7 0.4-0.7-0.2-0.8-0.6-0.7-0.5 0.1-1 0.4-1.3 0.5-0.5-0.6-0.9-1.3-1.4-1.9-0.3 0.3-0.6 0.6-0.9 0.8-0.3-0.3-0.5-0.7-0.8-1-0.9-0.8-1.7 0.1-2.6 0 1.2 0.3 1.4 1.2 1.4 2.4-1.8-0.5-3.5-1-5.6-1.6 0.2 0.7 0.4 1.1 0.4 1.4-1.6-0.3-3.3-0.7-5.1-1 0.3 0.2 0.7 0.5 1 0.7v0.2c-0.6-0.1-1.2-0.2-1.7-0.3-0.4 0-0.9 0.1-1.3 0.1-0.9 1-1.4 1.1-2.2 0.3-0.4 0.3-0.7 0.5-1.1 0.8-0.2-0.1-0.4-0.3-0.6-0.4-0.8 0.1-1.7 0.3-2.4 0.4 0-0.4 0-1.1-0.1-1.1-0.6-0.1-1.2 0-1.7 0-0.5 0.1-0.9 0.2-1.4 0.3h-0.1c-0.5 0.9-1.2 0.6-1.8 0.3-0.2 0.6-0.4 1.1-0.5 1.6-0.3 0-0.6-0.1-0.9-0.1-0.9-0.1-1.9-0.2-2.8-0.2 0.1 0.2 0.3 0.6 0.2 1 0 0.4-0.3 0.7-0.5 1-0.3-0.3-0.8-0.5-1-0.8-0.2-0.2-0.2-0.6-0.2-1-0.9 0.4-1.6 0.7-2.4 1.1 0.3 0.4 0.5 0.7 0.8 1-0.1 0-0.2 0.1-0.4 0.1-0.7-0.5-1.6-0.6-2-1.5 0-0.1-0.5-0.1-0.5-0.1l-0.3 0.9c-0.1 0.5-0.1 1-0.1 1.5h-0.4l-0.3-1.2h-1.1c0.1 0.2 0.2 0.4 0.3 0.9-0.7-0.5-1.2-0.8-1.7-1.2v0.3c-0.4 0.1-0.7 0.1-1.1 0.3-0.3 0.2-0.6 0.5-1 0.8 0.2-1.7-1.7-0.6-2.2-1.5l-1.2 1.2c-0.3-0.1-0.5-0.3-0.9-0.5 0.6-0.6 1.8-0.9 0.5-1.9-0.2-0.7-0.2-1.6-1.3-1.5 0.1 0.3 0.2 0.5 0.1 0.6-0.6 1.1 0 1.2 0.9 1.1-0.2 0.3-0.4 0.5-0.5 0.6-1.1-0.4-1.9-0.7-3-1 0.4 0.5 0.6 0.8 0.8 1.1-0.7 0.1-1.3 0.1-1.9 0.2-0.4 0.1-0.7 0.4-1.1 0.4-0.2 0-0.4-0.4-0.7-0.7l0.6-0.9c0.3-0.1 0.6-0.3 0.9-0.4h-0.3l0.3-1.5c-0.2-0.1-0.5-0.2-0.8-0.3-0.7-0.3-1.4-0.5-2.1-0.8-0.8-0.4-2 0.2-2.7-0.8 0.3-1.5 1.1-0.5 1.7-0.4 0.2 0 0.4 0.1 0.6 0.2 0-0.1 0.1-0.3 0.1-0.4-0.5-0.1-1-0.2-1.4-0.4-0.3-0.2-0.5-0.6-0.7-0.8-0.1-0.3-0.2-0.6-0.2-0.8-0.1-0.2-0.1-0.4-0.2-0.5 0-0.1-0.1-0.2-0.1-0.3-0.3-0.1-0.5-0.3-1-0.5 0.2-0.8 0.5-1.7 0.8-2.7 0.2 0.1 0.4 0.2 0.5 0.3l0.9-1.8c0 0.3 0 0.7 0.1 1.1 0.9-0.2 1.6-0.4 2.3-0.5-0.7-0.5-1.3-1.3-2.2-0.7 0.2-0.5 0.6-0.9-0.3-1.2-0.3-0.1-0.6-0.3-0.8-0.5 0.2-0.1 0.4-0.3 0.6-0.4 0.4 0 0.7 0.1 1.1 0.1 0.1-0.1 0.1-0.2 0.2-0.3-0.6-0.4-1.2-0.8-1.7-1.2 0.7-0.5 1.5-1.2 2.5-1.7 0.9-0.5 2-0.7 3.2-1-0.1 0.5-0.2 0.8-0.3 1.1 0.2 0 0.3 0.1 0.3 0.1 0.7-1.8 2.4-1.5 3.8-1.8 1.3-0.2 2.6-0.3 3.9-0.4 0.7-0.5 1.3-0.8 1.9-0.9 0.4 0 0.9 0.2 1.5 0.3 0.2-0.1 0.5-0.6 0.8-0.6 2.3 0.5 4.6-1.1 6.3-0.4 1.8-0.3 3-0.5 4.3-0.6 1.5-0.3 3.1-0.4 4.7-0.7 3.4-0.4 6.8-1 10.2-1.2 1.3-0.1 2.5-0.9 3.9-0.5 0.6 0.2 1.3 0.2 2 0.3 0 0-0.1-0.3-0.1-0.4 1.7-0.2 3.4-0.4 5.1-0.5 2.2-0.1 4.4-0.1 6.6-0.3 1.2-0.1 2.3-0.3 3.5-0.5 0 0.1 0.1 0.2 0.1 0.3 0.1-0.1 0.2-0.1 0.3-0.2 0.1 0 0.3 0.2 0.3 0.1 1.3-1 3-0.1 4.4-0.8 0.4-0.2 1.2 0.1 1.8 0.2 0.1 0 0.1 0.1 0.2 0 1.7-0.9 1.9-0.9 3.5 0.1-0.4 0.2-0.6 0.3-0.9 0.4 0 0.1 0.1 0.2 0.1 0.3 0.6-0.2 1.2-0.5 2-0.7-0.1-0.3-0.3-0.6-0.4-0.9l0.1-0.1c2.7-0.3 5.4-0.5 8.1-0.8 1.6-0.1 3.2-0.3 4.7-0.3 1.3 0 2.6 0.2 4 0.4 0.2-0.1 0.7-0.5 1.2-0.5 2.1-0.1 4.3 0 6.4 0 1.1 0 2.2-0.2 3.4-0.3 0.6 0 1.2-0.1 1.7-0.1 1.9 0.1 3.8 0.1 5.6 0.2 1.8 0 3.5 0 5.3 0.1 0.3 0 0.6 0.1 0.9 0.1h2.2c0.5 0 0.9 0.2 1.4 0.2l7.5 0.3c1.5 0.1 3 0.2 4.5 0.6 0.8 0.2 1.6 0.4 2.4 0.3 0.3 0 0.7 0.3 0.9 0.4 1.1 0 2.1-0.1 3.1 0.1 0.6 0.1 1.2 0.6 1.8 0.8 1.3 0.2 2.6 0.3 4 0.4 0 0.1-0.1 0.4-0.1 0.8 1.2 0.1 2.3 0.2 3.5 0.3-0.1 0.2-0.1 0.4-0.3 0.7 1.5-1.1 2.5-0.9 3.7 0.7-0.9 0-1.4 0.4-1.2 1.3 3.1 0.4 2.6 0.6 3.3 1.7-0.2 0.5-0.3 1-0.5 1.4-0.5 0.7-1.1 1.2-1.7 1.8-0.1 0.1-0.6 0.1-0.7 0-0.3-0.7-0.6-1.4-0.8-2-0.3 0.1-0.9 0.4-1.3 0.5 0.7 0.8 1.5 1.6 2.4 2.7-0.3 0.5-0.6 1.1-1.1 1.9 0.2 0.2 0.6 0.6 1.2 1.1-0.5 0.2-0.9 0.4-1.4 0.6 0.2 0.1 0.4 0.2 0.6 0.2v0.2h-1.1c-0.5 1.1 0.8 1 1.3 1.8-1-0.2-1.8-0.3-2.6-0.5 0-0.1 0-0.2 0.1-0.3-0.6 0.2-1.1 0.5-1.7 0.7 0 0.2 0.1 0.4 0.1 0.6-0.3 0-0.6-0.1-0.9-0.1-0.9 0-1.7 0-2.6-0.1-0.3 0-0.5-0.2-0.8-0.3h-0.8c1.1 0.7 2.9 0.4 2.5 2.3-0.2 0.2-0.4 0.5-0.6 0.7-0.4-0.2-0.7-0.4-1.1-0.5 0 0-0.3 0.4-0.2 0.5 0.2 0.3 0.5 0.6 0.8 0.8 0.4 0.2 0.9 0.4 1.4 0.5 0.3 0.4 0.5 0.8 0.8 1.2-0.2 0.1-0.4 0.2-0.5 0.2-0.7 0.1-1.4 1.4-2-0.1-0.1-0.2-0.7-0.3-1.1-0.4 0.2 0.4 0.3 0.7 0.5 1.1-1.2-0.3-2.2-0.5-3.1-0.6 0 0.4-0.1 0.9-0.1 1.4-0.1-0.1-0.2-0.1-0.3-0.2-0.3-0.4-0.9-0.8-1-1.3-0.2-1-1.1-0.7-1.3-0.6-0.5 0.2-0.9 0.7-1.2-0.2h-0.3c-0.1 0.1-0.2 0.3-0.1 0.4 0.3 0.3 0.7 0.5 1.1 0.8-0.1 0.3-0.8 0.9 0.1 1.6 0 0-0.2 0.6-0.4 0.6-0.7 0.1-1.5 0.1-2.2 0.2-0.3 0-0.5 0.2-0.6 0.2-0.6-0.3-1.2-0.5-1.8-0.8 0.1 0.6 0.2 0.9 0.2 1.2-0.4 0-0.7 0.1-0.9 0.1-0.6-0.6-1.2-1.1-1.8-1.6l1.5-0.6-1-1c-0.3 0.2-0.6 0.4-0.8 0.6-0.5-0.3-1.1-0.7-1.5-1v1.7c-0.5-0.3-0.9-0.7-1.5-1.1-0.8 0.4-0.3 1.2-0.2 1.9-0.6-0.2-1.2-0.5-1.8-0.7-0.3-0.1-0.6-0.2-0.9-0.3 0.5-0.4 1.8 0.2 1.4-1.2h0.9c0-0.1 0-0.2 0.1-0.3-0.4-0.2-0.8-0.4-1.2-0.5-0.2 0.5-0.3 1-0.4 1.6-0.5-0.5-1-1.1-1.5-0.2-0.4-0.4-0.7-0.8-1.1-1.1-0.4-0.4-0.9-0.7-1.4-1-0.2 0.4-0.4 0.9-0.7 1.5-0.1 0.1-0.3 0.1-0.4 0.2-0.5 0.2-1 0.4-1.4 0.6 0-1.2-1.1-0.3-1.6-0.7-0.1 0-0.2 0-0.4 0.1-0.1-0.2-0.2-0.3-0.2-0.5l-0.6-1.2c-0.3 0.3-0.7 0.6-1 1-0.1 0.1-0.3 0.2-0.4 0.4-0.4 0.4-0.9 0.7-1.3 1.1 0.1 0.1 0.1 0.2 0.2 0.3-1.3-0.2-2.3-0.1-3 1.3l0.3-0.6c-0.2 0-0.4-0.2-0.6-0.1-0.4 0.1-0.7 0.2-1.1 0.4 0.1-0.6 0.3-1.3 0.4-1.9-0.1 0-0.2-0.1-0.3-0.1-0.3 0.3-0.6 0.5-1 0.8l-0.1-0.1 0.9-0.9c-0.9-0.3-1.7-0.5-2.5-0.7l-0.2 0.2c0.2-0.6 0.4-1.2 0.7-1.8-1.3 0.4-1.7 0.9-1.3 1.7l-1.8 0.3v0.4c0.4 0 0.7 0.1 1.1 0.1s0.7-0.1 1.1-0.2c-0.6 0.3-1.3 0.5-2.2 0.9 0.5 0.2 0.9 0.4 1.5 0.7-0.5 0.3-0.9 0.6-1.4 1 0.1-1.7-1.6-0.6-1.9-1.4h1.6c-0.5-0.5-0.7-0.8-1-1.1v0.3c-0.4 0-0.8-0.1-1.2-0.1-0.3 0-0.8-0.1-1 0s-0.2 0.6-0.3 0.9-0.1 0.6-0.3 1c0-0.2 0-0.5-0.1-0.6-1.4-0.6-0.5-1 0-1.6 0.3-0.3 0.3-1 0.4-1.6 0.4 0.2 0.7 0.5 1.1 0.5 0.7 0.2 1 0.5 0.4 1.3h0.5c0.3-0.6 0.6-1.2 0.9-1.9-0.9 0-1.8-0.9-2.6 0.1 0 0-0.2 0-0.3-0.1s-0.3-0.2-0.4-0.3c-0.2 0.2-0.4 0.4-0.4 0.6-0.1 0.2-0.1 0.5-0.2 0.8-0.3-0.2-0.5-0.4-0.8-0.5s-0.6-0.3-0.9-0.3c-0.1 0-0.2 0.3-0.4 0.5 0.1 0.1 0.3 0.2 0.4 0.3 0.4 0.1 0.7 0.3 1 0.6-0.7-0.2-1.4-0.3-2.1-0.4-0.1 0-0.3 0.2-0.5 0.4-0.1-0.3-0.2-0.6-0.3-1.2-0.7 1.8-1.8 0.9-2.7 1.1-0.1-0.2-0.1-0.4-0.2-0.6-0.2-0.6 0-1.6-1.2-1.4 0 0-0.1-0.1-0.1-0.2l0.6-1.2c-1.9-0.4-2.4 0-2.6 1.7 0 0.2-0.2 0.5-0.4 0.5s-0.4-0.2-0.7-0.4c0.1 1-0.3 1.3-1.3 1.1-0.9-0.2-1.6 0.2-1.5 1.4-0.4-0.4-0.8-0.7-1.3-1.2-0.7 1.3-2.2 1.3-3.4 1.6l2.2-2.2c-0.1-0.1-0.2-0.1-0.2-0.2-0.6 0-1.2 0.1-1.7 0.1 0-0.4 0-0.6-0.1-0.9-0.3 0.2-0.4 0.4-0.5 0.6-0.3 0.9 0.9 1.7 0.3 2.6zm18.5-5.1c-0.1 0.1-0.1 0.2-0.2 0.3-0.6 0-1.4-0.3-1.7 0-1.1 1.1-1.1-0.2-1.5-0.6-0.3-0.3-0.5-0.7-0.8-1-0.1 0-0.2 0.1-0.2 0.2 0.1 0.5 0.3 0.9 0.5 1.5-0.1 0.1-0.3 0.3-0.5 0.6 0.4 0.2 0.8 0.5 1.1 0.5 0.8 0 1.6-0.6 2.4 0.3 0.1-0.1 0.2-0.2 0.5-0.4h1.5c-0.5-0.7-0.8-1-1.1-1.4zm-14.6 2.7c1.1-0.2 2.1-0.4 3.2-0.6 0-0.1-0.1-0.3-0.1-0.4-0.7 0.1-1.4 0.2-2.2 0.3-0.1-0.1-0.3-0.3-0.5-0.7-0.3 0.6-0.4 1-0.4 1.4zm-61.4-5.7c-0.3 0.6-0.5 1.1-0.8 1.7 0.3 0.2 0.6 0.4 1 0.5 0.2-0.4 0.5-0.8 0.6-0.9-0.3-0.5-0.5-0.8-0.8-1.3zm68.8 3.5c0.5 0.6 0.9 1 1.4 1.6 0.1-0.7 0.2-1.2 0.3-1.9-0.6 0.1-1.1 0.1-1.7 0.3zm-30.2-8.2c-0.1-0.1-0.1-0.2-0.2-0.2-0.5 0.2-1 0.5-1.7 0.8 0.6 0.3 1 0.5 1.3 0.7 0.3-0.4 0.5-0.9 0.6-1.3z" style="fill: inherit;"/><path d="m4.5 24.9c0.7 0.3 1.4 0.5 2.1 0.8 0.8 1.3-0.7 1.3-1.1 2 0.4 0.1 0.7 0.1 1 0.2l-0.6 0.9c-0.5 0.1-0.6-1.4-1.3 0.1 0.1-0.8 0.2-1.3 0.2-1.8 0.2-0.1 0.4-0.2 0.5-0.3-0.3-0.2-0.6-0.5-0.9-0.7-0.3-0.1-0.7-0.3-1.4-0.5 0.7-0.4 1.1-0.5 1.5-0.7z" style="fill: inherit;"/><path d="m113.4 29.8c0.2 0.3 0.5 0.7 0.8 1.2-0.4-0.2-1.1-0.3-1.1-0.5 0-0.7 0-1.4 0.3-2 0.2-0.3 0.5-1.2 1.4-0.6 0.4 0.2 1 0 1.7 0-0.5 0.4-0.9 0.7-1.4 1 0.3 0.1 0.5 0.1 0.7 0.2v0.3c-0.7 0.1-1.4 0.3-2.4 0.4z" style="fill: inherit;"/><path d="m146.7 24.5c-0.3-0.4-0.5-0.8-0.8-1.2s-0.6-0.8-0.9-1.3c0.3 0.1 0.6 0.2 0.8 0.2 0.3-0.1 0.6-0.1 1-0.2 0.5 0 0.9-0.1 1.4-0.1l0.3 0.3c-0.4 0.7-0.9 1.5-1.3 2.2-0.1 0.2-0.4 0.2-0.5 0.1z" style="fill: inherit;"/><path d="m39.6 26.6c0.2 0.1 0.4 0.3 0.6 0.4 0.3 0.4 0.6 0.8 1 1.5-1.2-0.6-0.9 0.3-0.9 0.7-1-0.4-1.9-0.7-2.8-1 0-0.1 0.1-0.5 0.2-0.8 0.3 0.3 0.6 0.5 0.7 0.6 0.5-0.3 0.8-0.5 1.1-0.7 0-0.1 0-0.4 0.1-0.7z" style="fill: inherit;"/><path d="m30.5 28c0.3 0 0.6 0.1 0.9 0.1 0.2 0.1 0.4 0.2 0.6 0.4-0.2 0.3-0.4 0.6-0.7 0.8-0.6 0.4-1.2 0.7-2 1.2-0.1-0.1-0.4-0.5-0.8-0.9 0.7-0.6 1.4-1.1 2-1.6z" style="fill: inherit;"/><path d="m91.6 24c0.1 0.2 0.1 0.4 0.2 0.6 0.6 1 1.9 1.2 2.9 0.4 0.1 1.3-0.9 0.8-1.5 0.9s-1.2 0-1.7 0c0.1-0.2 0.1-0.4 0.2-0.7-0.6 0-1.2-0.1-1.7 0-0.3 0-0.5 0.2-0.8 0.3 0 0-0.1-0.3-0.2-0.5 0.2-0.1 0.5-0.1 0.7-0.3 0.3-0.2 0.6-0.5 1-0.6 0.2-0.2 0.6-0.1 0.9-0.1z" style="fill: inherit;"/><path d="m76.9 29.8c-1 0.9-1.8 2-3.3 1.6-0.2-0.9 0.7-1.4 1.3-1.6s1.4-1 2 0z" style="fill: inherit;"/><path d="m4.4 26.1c0.3 0.2 0.6 0.5 0.9 0.7-0.2 0.1-0.4 0.2-0.5 0.3-0.4 0.4-1 0.7-1.2 1.2-0.5 1.1-0.8 0.2-1.2 0.1 0.1-0.5 0.3-1 0.4-1.5 0.2 0.1 0.3 0.3 0.5 0.5 0.4-0.4 0.7-0.9 1.1-1.3z" style="fill: inherit;"/><path d="m123.7 30.3c-0.3-0.1-0.6-0.1-1-0.2 0.1-0.6 0.2-1.2-0.7-1.2-0.1 0-0.3-0.4-0.4-0.6 0.2-0.1 0.5-0.3 0.7-0.2 1.2 0.1 1.8 1 1.4 2.2z" style="fill: inherit;"/><path d="m78 25.5c0.2 0.5 0.4 1.1 0.7 1.7-0.6-0.1-1.1-0.1-1.5-0.3-0.3-0.2-0.6-0.6-0.8-0.9l-0.6 0.6c0.2-1.2 0.6-1.4 2.2-1.1z" style="fill: inherit;"/><path d="m2.2 22.2c-0.7 0.4-1.5 0.8-2.2 1.2-0.2-1.5 0.4-2.4 1.6-2.4 0.1 0 0.2 0.2 0.4 0.3 0 0.3 0.1 0.6 0.2 0.9z" style="fill: inherit;"/><path d="m139.9 25.9c0.1 0.1 0.2 0.1 0.3 0.2 0.7-0.1 1.4-0.3 2.1-0.3 0.6 0 0.7 0.4 0.4 0.9-1.5-0.2-2.9-0.4-4.4-0.6 0.5-1.1 0.5-1.1 1.6-0.2z" style="fill: inherit;"/><path d="m117 27.1c0.8 0.2 1.6 0.4 2.4 0.5-0.6 0.4-1.2 0.7-1.8 1.1l0.1 0.1c-1.1-0.2-0.6-1.1-0.7-1.7z" style="fill: inherit;"/><path d="m34.8 28.1c0.1 0.5 0.2 1.1 0.3 1.7l-0.2 0.2c-0.7-0.4-1.3-0.8-2.1-1.3 0.8-0.2 1.4-0.4 2-0.6z" style="fill: inherit;"/><path d="m20.9 34.2c-0.1-0.3-0.2-0.6-0.4-1 0.5-0.1 0.8-0.2 1.2-0.3s0.7-0.3 1.1-0.4c0.6 1.9-1.6 0.7-1.5 1.9-0.1-0.1-0.3-0.1-0.4-0.2z" style="fill: inherit;"/><path d="m57.7 25.1c0.1 0.1 0.3 0.4 0.4 0.4 1.1-0.1 1.3 0 1 1.1-0.4-0.1-0.9-0.2-1.3-0.4-0.5-0.2-0.9-0.4-1.3-0.6 0-0.1 0.1-0.2 0.1-0.3 0.3 0 0.7-0.1 1.1-0.2z" style="fill: inherit;"/><path d="m75.9 26.7s-0.1-0.1 0 0c-0.2 0-0.5 0.1-0.7 0-0.5-0.3-1-0.7-1.5-1 0.3-0.3 0.7-0.6 1-0.9 0.7-0.3 0.9 0.3 0.6 0.6-0.4 0.7 0.1 0.9 0.6 1.3z" style="fill: inherit;"/><path d="m134.4 31.6c-1.6 0.8-1.8 0.6-1.9-1.6 0.7 0.5 1.2 1 1.9 1.6z" style="fill: inherit;"/><path d="m24.2 30.1c0.1 0 0.3-0.1 0.4-0.1 0.3-0.1 0.7-0.3 0.8-0.2 0.3 0.2 0.5 0.6 0.9 1.1-1-0.2-1.9-0.3-2.7-0.5v-0.2c0.2 0 0.4 0 0.6-0.1z" style="fill: inherit;"/><path d="m115.4 24.7c0.1 0.2 0.2 0.3 0.2 0.5l-0.3 0.9c-1.3 0.6-1.6-0.3-2-1.2 0.1-0.1 0.3-0.2 0.4-0.4 0.2 0.4 0.5 0.9 0.8 1.6 0.1-0.5 0.2-0.8 0.3-1.1 0.1-0.2 0.4-0.3 0.6-0.3z" style="fill: inherit;"/><path d="m115.3 26l0.3-0.9c0.1 0 0.2 0 0.4-0.1l-0.3 0.9c0.5 0 1 0.1 1.5 0.1-0.2 0.4-0.3 0.7-0.4 1-0.4-0.1-0.9-0.3-1.6-0.5 0.3 0.3 0.5 0.4 0.8 0.7-0.5-0.1-0.8-0.2-1.2-0.3 0.1-0.3 0.3-0.6 0.5-0.9z" style="fill: inherit;"/><path d="m98.3 28.5c-0.7-0.6-1.4-1.3-2.1-1.9l0.3-0.3c1 0.3 1.6 1.1 2.1 2-0.1 0.1-0.2 0.2-0.3 0.2z" style="fill: inherit;"/><path d="m43.4 26c0.4 0 0.9-0.1 1.3-0.1 0 0.2 0 0.4-0.1 0.6 0 0.2-0.1 0.5-0.2 0.8-0.5-0.4-1.5-0.2-1-1.3z" style="fill: inherit;"/><path d="m91.2 30.7c-0.7-0.3-1.3-0.5-2-0.8 1.3-0.9 1.8-0.7 2 0.8z" style="fill: inherit;"/><path d="m85.1 26.2c0.2-1.1 0.9-1.7 1.7-1.4 0.2 0.1 0.4 0.3 0.4 0.5 0 0.1-0.4 0.4-0.4 0.4-0.8-0.6-1.1 0.4-1.7 0.5z" style="fill: inherit;"/><path d="m119.4 24.9c0.9-0.3 1.7-0.2 2.3 0.6l-0.6 0.3c-0.7-0.1-1.3-0.2-2-0.3-0.1 0-0.1-0.2-0.1-0.4 0.2-0.1 0.3-0.1 0.4-0.2z" style="fill: inherit;"/><path d="m46.5 27.6c0.4 1.4-0.9 0.8-1.4 1.2-0.2-0.4-0.3-0.6-0.5-0.9 0.6-0.1 1.2-0.2 1.9-0.3z" style="fill: inherit;"/><path d="m150.2 23.1c-0.3 0.6-0.5 1.1-0.9 1.9-0.4-0.5-0.6-0.7-0.8-0.9 0.5-0.4 0.9-0.8 1.3-1.1 0.2 0 0.3 0 0.4 0.1z" style="fill: inherit;"/><path d="m148.1 19.6c0-0.2-0.1-0.4-0.1-0.6 0.8 0.5 1.6 1 2.4 1.4-0.1 0.1-0.1 0.2-0.2 0.3-0.3 0-0.7-0.1-1-0.1v-0.2c0.2 0 0.3-0.1 0.5-0.1 0-0.1 0-0.2 0.1-0.3-0.6-0.1-1.1-0.2-1.7-0.4z" style="fill: inherit;"/><path d="m121.7 29.8c-0.5 0.4-1.1 0.8-1.8 1.3 0-1.4 0.5-1.7 1.8-1.3z" style="fill: inherit;"/><path d="m145.6 21.4c0.2-0.3 0.4-0.6 0.7-0.9 0.2 0.3 0.4 0.6 0.6 0.8h-0.1 0.1c-0.2 0.2-0.3 0.4-0.5 0.6-0.1-0.2-0.1-0.5-0.2-0.6-0.1 0-0.4 0-0.6 0.1z" style="fill: inherit;"/><path d="m146.8 22.2c-0.3 0.1-0.6 0.1-1 0.2 0.2-0.2 0.5-0.4 0.7-0.6 0.1 0.1 0.2 0.2 0.3 0.4z" style="fill: inherit;"/><path d="m112.1 26.2c0 0.2-0.1 0.3-0.2 0.5-0.1-0.1-0.2-0.1-0.2-0.2 0.2-0.1 0.3-0.2 0.4-0.3z" style="fill: inherit;"/><path d="m116.9 29.3h-0.2v-0.1c0.1 0 0.2 0 0.2 0.1v0z" style="fill: inherit;"/><path d="m142.8 26.7s-0.1 0 0 0c0 0.1 0 0.1 0.1 0.2-0.1-0.1-0.1-0.2-0.1-0.2z" style="fill: inherit;"/><path d="m117.7 28.8s-0.1 0 0 0c-0.1 0 0 0 0 0z" style="fill: inherit;"/><path d="m112 25.9z" style="fill: inherit;"/><path d="m0.2 23.7c0.1 0.2 0.2 0.3 0.3 0.5-0.1-0.2-0.2-0.3-0.3-0.5z" style="fill: inherit;"/></g></g></svg>