<svg xmlns="http://www.w3.org/2000/svg" enable-background="new 0 0 152 55.4" version="1.1" viewBox="0 0 152 55.4" x="0px" xml:space="preserve" y="0px" style="fill: rgb(0, 0, 0);" role="img"><g id="__id18_suxpcqtyjk"><g id="__id19_suxpcqtyjk"><path d="m63.3 15.5c-3.7 1.4-5.6 4-7.4 6.8-1.7 2.5-3.3 4.9-4.7 7.5-1.1 2.2-1.7 4.7-2.6 7-1.2 3.1-2.8 6-5.8 7.8-0.9 0.5-2.1 0.7-3.1 0.6-5.5-0.5-8.2-4.1-9.5-9.1-1.2-4.9-2.4-9.8-3.7-14.7-0.6-2.2-1.7-4.2-2.7-6.7-3.8 3-6.6 6.1-8.7 9.9-1.8 3.3-3.8 6.6-5.3 10.1-1.6 3.9-2.7 8.1-3.9 12.1-0.9 2.8-1.6 5.7-2.4 8.6-2.7-0.1-3.7-1.1-3.4-3.5 1.2-10.3 3.1-20.5 8-29.8 2.5-4.7 5.2-9.4 9.7-12.7 1.8-1.3 3.6-1.4 5.6-0.6 4.5 1.8 7 5.5 8.7 9.7 1.4 3.4 2.1 7.1 3.1 10.7 0.8 2.7 1.4 5.4 2.2 8.1 0.1 0.4 0.5 0.7 1 1.5 1.3-2.4 2.4-4.5 3.6-6.6 3.4-6.1 6.9-12.1 10.4-18.1 0.5-0.9 1.4-1.6 2.1-2.3 4.7-4.8 9-4.1 13.2 1.3 2 2.7 3 6.3 4 9.6 1.2 4 1.8 8.1 2.7 12.1 0.1 0.3 0.4 0.5 0.9 1.2 1.4-2.9 2.5-5.4 3.9-7.8 2.6-4.4 5.1-9 8.1-13.1 2-2.7 4.7-5 7.2-7.3 2.4-2 4.9-1.7 7.2 0.4 2.6 2.4 4.5 5.3 5 8.9 0.8 5.6 1.6 11.3 2.5 16.9 0 0.3 0.2 0.5 0.5 1.5 1.3-1.9 2.3-3.3 3.2-4.8 3.9-6.5 7.6-13.1 11.7-19.4 2.8-4.2 6.1-8.2 10.9-10.3 4.5-1.9 7.5-0.9 9.5 3.4 2 4.6 3 9.5 3.4 14.6 0.6 7.8 1.1 15.6 3.4 23.1 0.6 2.2 0 3.9-2.2 6.1-1.3-3.8-2.4-7-3.5-10.2-3-8.4-3.1-17.3-4-26.1v-0.7c-0.4-3.6-1.4-4.2-4.5-2.5-1.6 0.9-2.8 2.3-4.2 3.4-4.4 3.3-5.8 8.7-9.2 12.8-2.5 3-3.4 7.2-5.4 10.6-1.4 2.4-3.3 4.5-5.3 6.5-0.5 0.5-2 0.3-2.9 0-5.6-1.9-7.8-6.3-8.5-11.8-0.5-4.4-0.9-8.7-1.4-13.1-0.1-1.1-0.4-2.1-0.7-3.2-0.3-0.1-0.5-0.3-0.8-0.4-2.2 2.2-4.6 4.2-6.5 6.7-3.9 5.4-7.1 11.2-9.6 17.4-0.6 1.5-1.5 2.9-2.5 4.1-0.7 0.8-1.9 1.6-3 1.8-2.3 0.5-7.6-2.7-8.3-4.9-1.6-5.5-2.9-11-4.3-16.4-0.5-2.2-1.1-4.4-1.7-6.7z" style="fill: rgb(144, 184, 228);"/></g></g></svg>