<svg width="182" height="521" viewBox="0 0 182 521" fill="none" xmlns="http://www.w3.org/2000/svg">
<path d="M2.11255 519.219L2.48151 442.72C2.57155 424.053 6.31815 407.488 13.7213 393.023C20.9579 378.558 31.262 367.358 44.6338 359.422C57.8389 351.486 73.108 347.559 90.4411 347.643C107.774 347.726 123.088 351.8 136.383 359.865C149.511 367.928 159.706 379.227 166.97 393.762C174.066 408.297 177.57 424.897 177.479 443.564L177.111 520.063L2.11255 519.219ZM149.973 444.931C150.034 432.098 147.672 420.836 142.885 411.146C137.933 401.289 130.969 393.755 121.994 388.545C112.853 383.168 102.283 380.45 90.2832 380.392C78.2833 380.335 67.7706 382.951 58.7449 388.24C49.5535 393.363 42.5174 400.829 37.6367 410.639C32.5901 420.281 30.0359 431.519 29.974 444.352L29.769 486.852L149.768 487.431L149.973 444.931ZM180.88 256.785C180.815 270.285 178.836 283.359 174.941 296.007C171.048 308.488 165.916 318.38 159.548 325.683L134.352 314.311C140.054 307.172 144.762 298.445 148.479 288.129C152.029 277.646 153.83 267.155 153.881 256.655C153.943 243.655 151.907 233.978 147.771 227.625C143.635 221.105 138.151 217.828 131.318 217.795C126.318 217.771 122.226 219.585 119.041 223.236C115.691 226.72 113.086 231.208 111.226 236.699C109.367 242.19 107.247 249.68 104.868 259.168C101.637 272.486 98.4182 283.304 95.2114 291.622C92.0053 299.774 87.0546 306.833 80.359 312.801C73.4976 318.601 64.317 321.474 52.8171 321.418C43.1506 321.371 34.4132 318.746 26.6048 313.542C18.6306 308.17 12.3356 300.223 7.7196 289.7C3.10443 279.011 0.833827 266 0.90778 250.667C0.959226 240 2.34319 229.507 5.05967 219.187C7.77614 208.866 11.6524 199.968 16.6886 192.492L41.8888 202.864C37.3519 210.509 33.8967 218.492 31.5232 226.814C29.1497 235.136 27.944 243.214 27.9063 251.047C27.8444 263.88 29.9648 273.474 34.2675 279.828C38.5711 286.016 44.3061 289.127 51.4727 289.161C56.4727 289.185 60.5644 287.455 63.7479 283.97C66.9322 280.319 69.4543 275.748 71.3141 270.257C73.174 264.766 75.2934 257.276 77.6726 247.787C80.7352 234.802 83.9533 224.15 87.3268 215.833C90.5336 207.515 95.4844 200.456 102.179 194.655C108.875 188.687 117.889 185.73 129.222 185.785C138.889 185.832 147.626 188.54 155.433 193.912C163.242 199.116 169.453 207.063 174.069 217.752C178.684 228.441 180.954 241.452 180.88 256.785ZM181.78 70.3106C181.695 87.9771 177.784 103.958 170.048 118.255C162.147 132.383 151.343 143.498 137.637 151.599C123.932 159.533 108.496 163.458 91.3298 163.375C74.1634 163.293 58.7666 159.135 45.1395 150.903C31.5123 142.67 20.8997 131.452 13.3014 117.249C5.5373 102.878 1.69784 86.8589 1.78305 69.1924C1.85218 54.8593 4.41526 41.7882 9.47228 29.9791C14.5293 18.17 21.8274 8.20507 31.3667 0.0843145L51.0152 21.1793C37.2876 33.7799 30.3792 49.3301 30.29 67.8299C30.2321 79.8298 32.8469 90.5925 38.1343 100.118C43.2551 109.643 50.4692 117.094 59.7768 122.473C69.0843 127.851 79.6546 130.569 91.4878 130.626C103.321 130.683 113.917 128.067 123.276 122.779C132.635 117.491 140.004 110.11 145.383 100.635C150.596 91.1604 153.231 80.423 153.289 68.4232C153.378 49.9234 146.536 34.3069 132.764 21.5736L152.865 0.670316C162.326 8.88271 169.527 19.0009 174.469 31.0249C179.412 42.8822 181.849 55.9774 181.78 70.3106Z" fill="url(#paint0_linear)" fill-opacity="0.55"/>
<defs>
<linearGradient id="paint0_linear" x1="-216.5" y1="368" x2="274.363" y2="201.006" gradientUnits="userSpaceOnUse">
<stop stop-color="#C2BFDD"/>
<stop offset="1" stop-color="#08003C"/>
</linearGradient>
</defs>
</svg>
